<svg width="351" height="309" viewBox="0 0 351 309" fill="none" xmlns="http://www.w3.org/2000/svg">
<g clip-path="url(#clip0_132_595)">
<path d="M313.21 280.868C316.99 278.552 320.412 275.798 323.292 272.467C344.705 247.703 344.486 212.762 343.009 182.658C341.269 147.118 334.69 111.564 315.659 80.2177C297.317 50.0037 269.689 24.3407 235.102 10.6144C225.561 6.83032 215.589 3.97401 205.412 2.1112C186.609 -1.32952 167.089 -0.613613 148.753 4.64609C141.757 6.655 134.929 9.16797 128.268 12.0024C82.7658 31.3975 76.442 71.3566 58.7498 111.316C46.2263 139.601 16.7637 158.09 4.26952 186.413C-9.7234 218.139 12.6989 252.802 41.3135 269.83C47.864 273.724 54.875 276.938 62.142 279.495C130.14 303.397 206.838 310.731 277.614 293.331C289.523 290.401 302.727 287.296 313.203 280.861L313.21 280.868Z" fill="#92E3A9"/>
<path opacity="0.7" d="M313.21 280.868C316.99 278.552 320.412 275.798 323.292 272.467C344.705 247.703 344.486 212.762 343.009 182.658C341.269 147.118 334.69 111.564 315.659 80.2177C297.317 50.0037 269.689 24.3407 235.102 10.6144C225.561 6.83032 215.589 3.97401 205.412 2.1112C186.609 -1.32952 167.089 -0.613613 148.753 4.64609C141.757 6.655 134.929 9.16797 128.268 12.0024C82.7658 31.3975 76.442 71.3566 58.7498 111.316C46.2263 139.601 16.7637 158.09 4.26952 186.413C-9.7234 218.139 12.6989 252.802 41.3135 269.83C47.864 273.724 54.875 276.938 62.142 279.495C130.14 303.397 206.838 310.731 277.614 293.331C289.523 290.401 302.727 287.296 313.203 280.861L313.21 280.868Z" fill="white"/>
<path d="M20.9601 172.971L31.1368 270.436" stroke="#263238" stroke-width="2" stroke-miterlimit="10"/>
<path d="M29.4992 251.786L24.8788 246.914" stroke="#263238" stroke-width="2" stroke-miterlimit="10"/>
<path d="M26.2824 248.375C26.2824 248.375 26.414 246.22 24.4474 244.466C23.263 243.407 17.0269 240.792 16.4347 242.983C15.7914 245.372 22.1737 250.055 26.2824 248.382V248.375Z" fill="#92E3A9" stroke="#263238" stroke-miterlimit="10"/>
<path d="M26.2824 248.375L20.346 244.678" stroke="#263238" stroke-width="0.5" stroke-miterlimit="10"/>
<path d="M30.6543 262.875L26.0412 258.003" stroke="#263238" stroke-width="2" stroke-miterlimit="10"/>
<path d="M27.4448 259.464C27.4448 259.464 27.5764 257.309 25.6098 255.556C24.4255 254.496 18.1893 251.881 17.5972 254.073C16.9538 256.461 23.3362 261.144 27.4448 259.471V259.464Z" fill="#92E3A9" stroke="#263238" stroke-miterlimit="10"/>
<path d="M27.4448 259.464L21.5085 255.767" stroke="#263238" stroke-width="0.5" stroke-miterlimit="10"/>
<path d="M26.6699 224.735L22.0568 219.87" stroke="#263238" stroke-width="2" stroke-miterlimit="10"/>
<path d="M23.4605 221.324C23.4605 221.324 23.5921 219.169 21.6254 217.416C20.4411 216.356 14.205 213.741 13.6128 215.933C12.9694 218.321 19.3518 223.004 23.4605 221.331V221.324Z" fill="#92E3A9" stroke="#263238" stroke-miterlimit="10"/>
<path d="M23.4605 221.324L17.5241 217.635" stroke="#263238" stroke-width="0.5" stroke-miterlimit="10"/>
<path d="M27.8323 235.824L23.2119 230.952" stroke="#263238" stroke-width="2" stroke-miterlimit="10"/>
<path d="M24.6155 232.413C24.6155 232.413 24.7471 230.258 22.7805 228.505C21.5962 227.445 15.36 224.83 14.7679 227.022C14.1245 229.411 20.5069 234.093 24.6155 232.42V232.413Z" fill="#92E3A9" stroke="#263238" stroke-miterlimit="10"/>
<path d="M24.6156 232.413L18.6792 228.717" stroke="#263238" stroke-width="0.5" stroke-miterlimit="10"/>
<path d="M24.791 206.728L20.1779 201.863" stroke="#263238" stroke-width="2" stroke-miterlimit="10"/>
<path d="M21.5816 203.317C21.5816 203.317 21.7131 201.162 19.7465 199.408C18.5622 198.349 12.326 195.734 11.7339 197.925C11.0905 200.314 17.4729 204.997 21.5816 203.324V203.317Z" fill="#92E3A9" stroke="#263238" stroke-miterlimit="10"/>
<path d="M21.5816 203.317L15.6452 199.627" stroke="#263238" stroke-width="0.5" stroke-miterlimit="10"/>
<path d="M22.9048 188.648L18.2844 183.775" stroke="#263238" stroke-width="2" stroke-miterlimit="10"/>
<path d="M19.6881 185.236C19.6881 185.236 19.8197 183.081 17.853 181.328C16.6687 180.269 10.4326 177.654 9.84038 179.845C9.19703 182.234 15.5794 186.917 19.6881 185.244V185.236Z" fill="#92E3A9" stroke="#263238" stroke-miterlimit="10"/>
<path d="M19.6881 185.236L13.7517 181.54" stroke="#263238" stroke-width="0.5" stroke-miterlimit="10"/>
<path d="M28.7242 245.226L32.2334 239.514" stroke="#263238" stroke-width="2" stroke-miterlimit="10"/>
<path d="M31.1588 241.23C31.1588 241.23 30.5812 239.148 32.1457 237.022C33.0888 235.744 38.645 231.894 39.6759 233.918C40.8017 236.117 35.5233 242.019 31.1588 241.23Z" fill="#92E3A9" stroke="#263238" stroke-miterlimit="10"/>
<path d="M31.1588 241.23L36.503 236.124" stroke="#263238" stroke-width="0.5" stroke-miterlimit="10"/>
<path d="M25.6756 216.057L29.1848 210.344" stroke="#263238" stroke-width="2" stroke-miterlimit="10"/>
<path d="M28.1101 212.061C28.1101 212.061 27.5326 209.979 29.0971 207.853C30.0402 206.575 35.5964 202.725 36.6272 204.748C37.7531 206.947 32.4747 212.85 28.1101 212.061Z" fill="#92E3A9" stroke="#263238" stroke-miterlimit="10"/>
<path d="M28.1101 212.061L33.4543 206.955" stroke="#263238" stroke-width="0.5" stroke-miterlimit="10"/>
<path d="M24.3377 203.236L27.8469 197.524" stroke="#263238" stroke-width="2" stroke-miterlimit="10"/>
<path d="M26.7722 199.24C26.7722 199.24 26.1947 197.158 27.7592 195.033C28.7023 193.754 34.2585 189.904 35.2894 191.928C36.4152 194.127 31.1368 200.029 26.7722 199.24Z" fill="#92E3A9" stroke="#263238" stroke-miterlimit="10"/>
<path d="M26.7722 199.24L32.1165 194.134" stroke="#263238" stroke-width="0.5" stroke-miterlimit="10"/>
<path d="M22.3711 184.447L25.8803 178.727" stroke="#263238" stroke-width="2" stroke-miterlimit="10"/>
<path d="M24.8129 180.444C24.8129 180.444 24.2354 178.362 25.7999 176.236C26.743 174.958 32.2992 171.108 33.33 173.132C34.4559 175.331 29.1775 181.233 24.8129 180.444Z" fill="#92E3A9" stroke="#263238" stroke-miterlimit="10"/>
<path d="M24.8129 180.444L30.1571 175.345" stroke="#263238" stroke-width="0.5" stroke-miterlimit="10"/>
<path d="M20.8724 172.43C20.8724 172.43 20.2949 170.348 21.8594 168.223C22.8025 166.944 28.3587 163.094 29.3895 165.118C30.5154 167.317 25.237 173.219 20.8724 172.43Z" fill="#92E3A9" stroke="#263238" stroke-miterlimit="10"/>
<path d="M20.8724 172.43L26.2166 167.324" stroke="#263238" stroke-width="0.5" stroke-miterlimit="10"/>
<path d="M21.1795 172.65C21.1795 172.65 19.0447 173 17.1 171.225C15.923 170.159 12.677 164.227 14.7971 163.416C17.1073 162.532 22.4296 168.391 21.1795 172.65Z" fill="#92E3A9" stroke="#263238" stroke-miterlimit="10"/>
<path d="M21.1795 172.65L16.6614 166.805" stroke="#263238" stroke-width="0.5" stroke-miterlimit="10"/>
<path d="M47.8055 186.398L37.6873 283.87" stroke="#263238" stroke-width="2" stroke-miterlimit="10"/>
<path d="M39.9244 265.279L36.4079 259.559" stroke="#263238" stroke-width="2" stroke-miterlimit="10"/>
<path d="M37.4826 261.276C37.4826 261.276 38.0529 259.194 36.4883 257.068C35.5452 255.789 29.989 251.94 28.9582 253.97C27.8396 256.177 33.1181 262.072 37.4826 261.276Z" fill="#92E3A9" stroke="#263238" stroke-miterlimit="10"/>
<path d="M37.4826 261.276L32.4381 256.44" stroke="#263238" stroke-width="0.5" stroke-miterlimit="10"/>
<path d="M42.7318 238.228L39.2226 232.508" stroke="#263238" stroke-width="2" stroke-miterlimit="10"/>
<path d="M40.29 234.225C40.29 234.225 40.8602 232.143 39.2957 230.017C38.3526 228.738 32.7964 224.889 31.7655 226.919C30.647 229.126 35.9254 235.021 40.29 234.225Z" fill="#92E3A9" stroke="#263238" stroke-miterlimit="10"/>
<path d="M40.29 234.225L35.2455 229.389" stroke="#263238" stroke-width="0.5" stroke-miterlimit="10"/>
<path d="M41.584 249.31L38.0675 243.597" stroke="#263238" stroke-width="2" stroke-miterlimit="10"/>
<path d="M39.1422 245.314C39.1422 245.314 39.7124 243.232 38.1479 241.106C37.2048 239.828 31.6486 235.978 30.6177 238.009C29.4992 240.215 34.7776 246.11 39.1422 245.314Z" fill="#92E3A9" stroke="#263238" stroke-miterlimit="10"/>
<path d="M39.1422 245.314L34.0904 240.478" stroke="#263238" stroke-width="0.5" stroke-miterlimit="10"/>
<path d="M44.6034 220.221L41.0869 214.501" stroke="#263238" stroke-width="2" stroke-miterlimit="10"/>
<path d="M42.1615 216.217C42.1615 216.217 42.7318 214.136 41.1673 212.01C40.2242 210.731 34.6679 206.882 33.6371 208.912C32.5186 211.118 37.797 217.014 42.1615 216.217Z" fill="#92E3A9" stroke="#263238" stroke-miterlimit="10"/>
<path d="M42.1615 216.217L37.1171 211.381" stroke="#263238" stroke-width="0.5" stroke-miterlimit="10"/>
<path d="M46.4822 202.133L42.9657 196.421" stroke="#263238" stroke-width="2" stroke-miterlimit="10"/>
<path d="M44.0404 198.137C44.0404 198.137 44.6107 196.055 43.0461 193.929C42.1031 192.651 36.5468 188.801 35.516 190.832C34.3974 193.038 39.6759 198.934 44.0404 198.137Z" fill="#92E3A9" stroke="#263238" stroke-miterlimit="10"/>
<path d="M44.0404 198.137L38.9959 193.294" stroke="#263238" stroke-width="0.5" stroke-miterlimit="10"/>
<path d="M40.5166 258.697L45.1297 253.824" stroke="#263238" stroke-width="2" stroke-miterlimit="10"/>
<path d="M43.726 255.285C43.726 255.285 43.5944 253.13 45.5611 251.37C46.7454 250.311 52.9742 247.688 53.5737 249.88C54.2171 252.268 47.842 256.958 43.7334 255.278L43.726 255.285Z" fill="#92E3A9" stroke="#263238" stroke-miterlimit="10"/>
<path d="M43.726 255.285L50.006 251.392" stroke="#263238" stroke-width="0.5" stroke-miterlimit="10"/>
<path d="M43.5433 229.527L48.1564 224.655" stroke="#263238" stroke-width="2" stroke-miterlimit="10"/>
<path d="M46.7527 226.116C46.7527 226.116 46.6212 223.961 48.5878 222.2C49.7721 221.141 56.0009 218.519 56.6004 220.71C57.2438 223.099 50.8687 227.789 46.7601 226.109L46.7527 226.116Z" fill="#92E3A9" stroke="#263238" stroke-miterlimit="10"/>
<path d="M46.7527 226.116L53.0401 222.222" stroke="#263238" stroke-width="0.5" stroke-miterlimit="10"/>
<path d="M44.8739 216.707L49.487 211.834" stroke="#263238" stroke-width="2" stroke-miterlimit="10"/>
<path d="M48.0833 213.295C48.0833 213.295 47.9517 211.14 49.9183 209.38C51.1027 208.321 57.3315 205.698 57.931 207.89C58.5743 210.278 52.1993 214.968 48.0906 213.288L48.0833 213.295Z" fill="#92E3A9" stroke="#263238" stroke-miterlimit="10"/>
<path d="M48.0833 213.295L54.3706 209.402" stroke="#263238" stroke-width="0.5" stroke-miterlimit="10"/>
<path d="M46.8259 197.918L51.439 193.038" stroke="#263238" stroke-width="2" stroke-miterlimit="10"/>
<path d="M50.0353 194.499C50.0353 194.499 49.9037 192.344 51.8703 190.584C53.0547 189.524 59.2835 186.902 59.883 189.093C60.5263 191.482 54.1513 196.172 50.0426 194.492L50.0353 194.499Z" fill="#92E3A9" stroke="#263238" stroke-miterlimit="10"/>
<path d="M50.0353 194.499L56.3226 190.606" stroke="#263238" stroke-width="0.5" stroke-miterlimit="10"/>
<path d="M47.8347 185.85C47.8347 185.85 47.7032 183.695 49.6698 181.934C50.8541 180.875 57.0829 178.253 57.6824 180.444C58.3258 182.833 51.9507 187.523 47.8421 185.843L47.8347 185.85Z" fill="#92E3A9" stroke="#263238" stroke-miterlimit="10"/>
<path d="M47.8347 185.85L54.1147 181.956" stroke="#263238" stroke-width="0.5" stroke-miterlimit="10"/>
<path d="M48.0906 186.128C48.0906 186.128 45.9339 186.033 44.3914 183.892C43.4629 182.607 41.5036 176.134 43.748 175.776C46.1898 175.389 50.1888 182.212 48.0906 186.128Z" fill="#92E3A9" stroke="#263238" stroke-miterlimit="10"/>
<path d="M48.0906 186.128L44.8739 179.48" stroke="#263238" stroke-width="0.5" stroke-miterlimit="10"/>
<path d="M36.2105 146.702V269.969" stroke="#263238" stroke-width="2" stroke-miterlimit="10"/>
<path d="M36.3056 251.428L32.2188 246.11" stroke="#263238" stroke-width="2" stroke-miterlimit="10"/>
<path d="M33.4616 247.703C33.4616 247.703 33.8199 245.577 32.0433 243.619C30.976 242.443 25.0469 239.192 24.2281 241.311C23.3435 243.619 29.1994 248.937 33.4616 247.695V247.703Z" fill="#92E3A9" stroke="#263238" stroke-miterlimit="10"/>
<path d="M33.4616 247.703L27.942 243.414" stroke="#263238" stroke-width="0.5" stroke-miterlimit="10"/>
<path d="M36.3056 228.271L32.2188 222.945" stroke="#263238" stroke-width="2" stroke-miterlimit="10"/>
<path d="M33.4616 224.538C33.4616 224.538 33.8199 222.412 32.0433 220.454C30.976 219.278 25.0469 216.028 24.2281 218.146C23.3435 220.454 29.1994 225.773 33.4616 224.531V224.538Z" fill="#92E3A9" stroke="#263238" stroke-miterlimit="10"/>
<path d="M33.4616 224.538L27.942 220.25" stroke="#263238" stroke-width="0.5" stroke-miterlimit="10"/>
<path d="M36.3056 201.074L32.2188 195.748" stroke="#263238" stroke-width="2" stroke-miterlimit="10"/>
<path d="M33.4616 197.348C33.4616 197.348 33.8199 195.222 32.0433 193.265C30.976 192.089 25.0469 188.838 24.2281 190.956C23.3435 193.265 29.1994 198.583 33.4616 197.341V197.348Z" fill="#92E3A9" stroke="#263238" stroke-miterlimit="10"/>
<path d="M33.4616 197.348L27.942 193.053" stroke="#263238" stroke-width="0.5" stroke-miterlimit="10"/>
<path d="M36.3056 182.964L32.2188 177.646" stroke="#263238" stroke-width="2" stroke-miterlimit="10"/>
<path d="M33.4616 179.239C33.4616 179.239 33.8199 177.113 32.0433 175.155C30.976 173.979 25.0469 170.728 24.2281 172.847C23.3435 175.155 29.1994 180.473 33.4616 179.232V179.239Z" fill="#92E3A9" stroke="#263238" stroke-miterlimit="10"/>
<path d="M33.4616 179.239L27.942 174.951" stroke="#263238" stroke-width="0.5" stroke-miterlimit="10"/>
<path d="M36.3056 164.782L32.2188 159.464" stroke="#263238" stroke-width="2" stroke-miterlimit="10"/>
<path d="M33.4616 161.056C33.4616 161.056 33.8199 158.931 32.0433 156.973C30.976 155.797 25.0469 152.546 24.2281 154.664C23.3435 156.973 29.1994 162.291 33.4616 161.049V161.056Z" fill="#92E3A9" stroke="#263238" stroke-miterlimit="10"/>
<path d="M33.4616 161.056L27.942 156.768" stroke="#263238" stroke-width="0.5" stroke-miterlimit="10"/>
<path d="M36.2178 258.507L40.2973 253.181" stroke="#263238" stroke-width="2" stroke-miterlimit="10"/>
<path d="M39.0544 254.781C39.0544 254.781 38.6962 252.655 40.4727 250.698C41.5401 249.522 47.4692 246.271 48.288 248.389C49.1726 250.698 43.3166 256.016 39.0544 254.774V254.781Z" fill="#92E3A9" stroke="#263238" stroke-miterlimit="10"/>
<path d="M39.0544 254.781L44.9031 250.259" stroke="#263238" stroke-width="0.5" stroke-miterlimit="10"/>
<path d="M36.2178 221.667L40.2973 216.342" stroke="#263238" stroke-width="2" stroke-miterlimit="10"/>
<path d="M39.0544 217.941C39.0544 217.941 38.6962 215.816 40.4727 213.858C41.5401 212.682 47.4692 209.431 48.288 211.549C49.1726 213.858 43.3166 219.176 39.0544 217.934V217.941Z" fill="#92E3A9" stroke="#263238" stroke-miterlimit="10"/>
<path d="M39.0544 217.941L44.9031 213.412" stroke="#263238" stroke-width="0.5" stroke-miterlimit="10"/>
<path d="M36.2178 203.477L40.2973 198.159" stroke="#263238" stroke-width="2" stroke-miterlimit="10"/>
<path d="M39.0544 199.752C39.0544 199.752 38.6962 197.626 40.4727 195.668C41.5401 194.492 47.4692 191.241 48.288 193.36C49.1726 195.668 43.3166 200.986 39.0544 199.744V199.752Z" fill="#92E3A9" stroke="#263238" stroke-miterlimit="10"/>
<path d="M39.0544 199.752L44.9031 195.23" stroke="#263238" stroke-width="0.5" stroke-miterlimit="10"/>
<path d="M36.2178 179.443L40.2973 174.125" stroke="#263238" stroke-width="2" stroke-miterlimit="10"/>
<path d="M39.0544 175.718C39.0544 175.718 38.6962 173.592 40.4727 171.634C41.5401 170.458 47.4692 167.207 48.288 169.326C49.1726 171.634 43.3166 176.952 39.0544 175.71V175.718Z" fill="#92E3A9" stroke="#263238" stroke-miterlimit="10"/>
<path d="M39.0544 175.718L44.9031 171.196" stroke="#263238" stroke-width="0.5" stroke-miterlimit="10"/>
<path d="M36.2178 160.552L40.2973 155.227" stroke="#263238" stroke-width="2" stroke-miterlimit="10"/>
<path d="M39.0544 156.827C39.0544 156.827 38.6962 154.701 40.4727 152.743C41.5401 151.567 47.4692 148.316 48.288 150.435C49.1726 152.743 43.3166 158.061 39.0544 156.819V156.827Z" fill="#92E3A9" stroke="#263238" stroke-miterlimit="10"/>
<path d="M39.0544 156.827L44.9031 152.305" stroke="#263238" stroke-width="0.5" stroke-miterlimit="10"/>
<path d="M35.9693 148.448C35.9693 148.448 35.611 146.322 37.3876 144.364C38.4549 143.188 44.384 139.937 45.2028 142.056C46.0874 144.364 40.2315 149.682 35.9693 148.44V148.448Z" fill="#92E3A9" stroke="#263238" stroke-miterlimit="10"/>
<path d="M35.9692 148.448L41.8179 143.926" stroke="#263238" stroke-width="0.5" stroke-miterlimit="10"/>
<path d="M36.2544 148.696C36.2544 148.696 34.0977 148.828 32.3431 146.855C31.283 145.672 28.6731 139.44 30.8663 138.849C33.2569 138.206 37.9359 144.591 36.2544 148.696Z" fill="#92E3A9" stroke="#263238" stroke-miterlimit="10"/>
<path d="M36.2544 148.696L32.365 142.414" stroke="#263238" stroke-width="0.5" stroke-miterlimit="10"/>
<path d="M41.2842 301.936H28.2198L26.5822 268.968H42.9145L41.2842 301.936Z" fill="#263238" stroke="#263238" stroke-miterlimit="10"/>
<g opacity="0.3">
<path d="M141.742 30.6451H81.3402V117.678H141.742V30.6451Z" stroke="black" stroke-miterlimit="10"/>
<path d="M141.75 45.8178V117.686H81.3475V115.757C86.4724 114.092 93.7028 110.987 100.575 105.406C113.113 95.2298 110.364 88.1803 118.201 67.8355C124.321 51.9322 135.221 47.0232 141.757 45.8251L141.75 45.8178Z" stroke="black" stroke-miterlimit="10"/>
<path d="M106.731 30.6451C106.504 40.2367 103.09 59.6391 81.3477 74.1033V30.6451H106.731Z" stroke="black" stroke-miterlimit="10"/>
<path d="M135.587 30.6451C132.158 37.9648 126.017 47.0816 116.637 47.0816C107.257 47.0816 109.56 37.7383 112.967 30.6451H135.587Z" stroke="black" stroke-miterlimit="10"/>
<path d="M101.1 87.5017C102.245 82.8845 99.4267 78.2146 94.8059 77.0711C90.1851 75.9276 85.5115 78.7436 84.3671 83.3608C83.2227 87.978 86.0409 92.648 90.6617 93.7914C95.2825 94.9349 99.9561 92.119 101.1 87.5017Z" stroke="black" stroke-miterlimit="10"/>
<path d="M135.038 76.441C135.038 78.6033 133.284 80.3565 131.12 80.3565C128.956 80.3565 127.201 78.6033 127.201 76.441C127.201 74.2786 128.956 72.5254 131.12 72.5254C133.284 72.5254 135.038 74.2786 135.038 76.441Z" stroke="black" stroke-miterlimit="10"/>
<path d="M125.052 108.138C127.107 108.138 128.773 106.473 128.773 104.42C128.773 102.366 127.107 100.701 125.052 100.701C122.996 100.701 121.33 102.366 121.33 104.42C121.33 106.473 122.996 108.138 125.052 108.138Z" stroke="black" stroke-miterlimit="10"/>
<path d="M218.513 30.6451H158.104V117.678H218.513V30.6451Z" stroke="black" stroke-miterlimit="10"/>
<path d="M218.521 30.6451V101.98C205.244 95.1202 183.524 73.8038 174.992 54.1238C169.553 41.5735 163.77 34.5022 159.573 30.6451H218.521Z" stroke="black" stroke-miterlimit="10"/>
<path d="M218.521 111.199V117.686H158.111V115.202C169.626 107.554 187.413 97.7427 199.278 100.709C206.918 102.615 213.454 106.845 218.528 111.206L218.521 111.199Z" stroke="black" stroke-miterlimit="10"/>
<path d="M174.21 83.8776C172.185 91.7014 163.799 96.7639 158.104 99.3645V53.9996C165.627 62.3493 176.264 75.9077 174.21 83.8776Z" stroke="black" stroke-miterlimit="10"/>
<path d="M192.721 30.6451H218.521V50.7853C205.339 47.9874 196.486 36.5257 192.721 30.6451Z" stroke="black" stroke-miterlimit="10"/>
<path d="M204.082 56.0742C207.437 61.239 206.779 67.6236 202.605 70.3338C198.43 73.0441 192.326 71.0498 188.97 65.885C185.615 60.7203 186.272 54.3356 190.447 51.6254C194.621 48.9152 200.726 50.9095 204.082 56.0742Z" stroke="black" stroke-miterlimit="10"/>
<path d="M295.277 30.6451H234.875V117.678H295.277V30.6451Z" stroke="black" stroke-miterlimit="10"/>
<path d="M295.284 74.3955V117.686H234.882V112.711C238.282 107.985 245.614 102.425 261.165 98.3564C274.551 94.8499 286.197 84.9368 295.284 74.3955Z" stroke="black" stroke-miterlimit="10"/>
<path d="M262.722 79.5748C250.637 87.7712 241.045 95.2517 234.875 100.314V53.9338C245.256 45.7375 263.248 30.0387 274.083 34.9551C287.008 40.8284 284.662 64.6943 262.722 79.5748Z" stroke="black" stroke-miterlimit="10"/>
<path d="M295.284 30.6451V44.3203C290.62 41.6904 287.293 35.9632 285.078 30.6451H295.284Z" stroke="black" stroke-miterlimit="10"/>
<path d="M265.858 55.6944C268.886 55.6944 271.341 53.2414 271.341 50.2155C271.341 47.1896 268.886 44.7367 265.858 44.7367C262.83 44.7367 260.375 47.1896 260.375 50.2155C260.375 53.2414 262.83 55.6944 265.858 55.6944Z" stroke="black" stroke-miterlimit="10"/>
<path d="M287.791 110.096C290.819 110.096 293.274 107.643 293.274 104.617C293.274 101.591 290.819 99.138 287.791 99.138C284.762 99.138 282.307 101.591 282.307 104.617C282.307 107.643 284.762 110.096 287.791 110.096Z" stroke="black" stroke-miterlimit="10"/>
<path d="M279.953 81.1381C279.953 83.3005 278.199 85.0537 276.035 85.0537C273.871 85.0537 272.116 83.3005 272.116 81.1381C272.116 78.9758 273.871 77.2226 276.035 77.2226C278.199 77.2226 279.953 78.9758 279.953 81.1381Z" stroke="black" stroke-miterlimit="10"/>
<path d="M245.688 80.3565C247.311 80.3565 248.627 79.0417 248.627 77.4199C248.627 75.798 247.311 74.4832 245.688 74.4832C244.064 74.4832 242.749 75.798 242.749 77.4199C242.749 79.0417 244.064 80.3565 245.688 80.3565Z" stroke="black" stroke-miterlimit="10"/>
</g>
<path d="M217.468 180.853H156.474C151.762 180.853 147.942 184.67 147.942 189.378V246.22C147.942 250.928 151.762 254.745 156.474 254.745H217.468C222.18 254.745 226 250.928 226 246.22V189.378C226 184.67 222.18 180.853 217.468 180.853Z" fill="white" stroke="#263238" stroke-miterlimit="10"/>
<path d="M139.417 180.853H78.4232C73.7113 180.853 69.8915 184.67 69.8915 189.378V246.22C69.8915 250.928 73.7113 254.745 78.4232 254.745H139.417C144.129 254.745 147.949 250.928 147.949 246.22V189.378C147.949 184.67 144.129 180.853 139.417 180.853Z" fill="white" stroke="#263238" stroke-miterlimit="10"/>
<path d="M114.195 213.208C114.195 213.208 85.5659 221.097 80.6311 223.566C75.6963 226.036 71.7485 228.008 73.7224 229.484C75.6963 230.967 86.5529 242.304 95.4428 246.256C104.326 250.201 119.137 246.256 133.452 247.242C147.766 248.229 155.172 246.256 155.172 244.773C155.172 243.29 149.251 231.456 139.871 224.553C130.491 217.649 119.634 212.718 119.634 212.718C119.634 212.718 115.189 209.263 114.202 213.215L114.195 213.208Z" fill="#A8A8A8" stroke="#263238" stroke-miterlimit="10"/>
<path d="M72.2163 212.704L76.559 245.548H70.7469L72.2163 212.704Z" fill="#263238" stroke="#263238" stroke-miterlimit="10"/>
<path d="M295.525 180.853H234.531C229.819 180.853 226 184.67 226 189.378V246.22C226 250.928 229.819 254.745 234.531 254.745H295.525C300.237 254.745 304.057 250.928 304.057 246.22V189.378C304.057 184.67 300.237 180.853 295.525 180.853Z" fill="white" stroke="#263238" stroke-miterlimit="10"/>
<path d="M302.639 210.023C302.639 210.023 289.816 207.824 283.221 206.363C276.627 204.902 264.169 204.164 264.169 204.164C264.169 204.164 261.603 204.894 261.969 206.363C262.334 207.824 262.334 210.753 262.334 210.753C262.334 210.753 259.037 222.471 255.74 229.79C252.443 237.11 249.877 242.238 249.877 242.238C249.877 242.238 245.11 244.072 248.042 245.533C250.973 246.994 258.664 246.994 258.664 246.994H304.832L305.563 215.144L302.632 210.015L302.639 210.023Z" fill="#A8A8A8" stroke="#263238" stroke-miterlimit="10"/>
<path d="M68.1296 301.184H306.316V252.414H70.3009L68.1296 301.184Z" fill="white" stroke="#263238" stroke-miterlimit="10"/>
<path d="M66.6382 261.1C66.6382 261.1 127.201 260.406 149.185 260.406C171.168 260.406 211.904 261.334 222.001 261.334C232.097 261.334 302.383 261.78 302.383 261.78L302.5 257.659L65.1906 255.994L66.6309 261.1H66.6382Z" fill="#263238" stroke="#263238" stroke-miterlimit="10"/>
<path d="M65.8413 258.814C65.8413 258.814 235.686 260.267 246.075 260.267C256.464 260.267 302.091 259.493 302.091 259.493V245.818C302.091 245.818 184.189 247.177 179.671 247.177C175.153 247.177 80.7408 244.269 77.1292 243.977C73.5177 243.685 65.834 243.977 65.834 243.977V258.814H65.8413Z" fill="white" stroke="#263238" stroke-miterlimit="10"/>
<path d="M318.087 209.65H306.484C303.658 209.65 301.367 211.94 301.367 214.764V296.939C301.367 299.763 303.658 302.053 306.484 302.053H318.087C320.913 302.053 323.204 299.763 323.204 296.939V214.764C323.204 211.94 320.913 209.65 318.087 209.65Z" fill="white" stroke="#263238" stroke-miterlimit="10"/>
<path d="M67.0988 209.65H55.4965C52.6701 209.65 50.3789 211.94 50.3789 214.764V296.939C50.3789 299.763 52.6701 302.053 55.4965 302.053H67.0988C69.9251 302.053 72.2163 299.763 72.2163 296.939V214.764C72.2163 211.94 69.9251 209.65 67.0988 209.65Z" fill="white" stroke="#263238" stroke-miterlimit="10"/>
<path d="M3.94785 301.936H350.634" stroke="#263238" stroke-linecap="round" stroke-linejoin="round"/>
<path d="M44.7276 137.358C44.7276 137.358 61.3524 151.596 105.049 150.647C148.746 149.697 185.79 125.97 237.558 137.358C289.326 148.747 299.298 156.819 326.37 148.747" stroke="#263238" stroke-miterlimit="10"/>
<path d="M44.7276 145.905C44.7276 145.905 61.3524 160.143 105.049 159.194C148.746 158.244 185.79 134.517 237.558 145.905C289.326 157.294 299.298 165.366 326.37 157.294" stroke="#263238" stroke-miterlimit="10"/>
<path d="M44.7276 154.445C44.7276 154.445 61.3524 168.683 105.049 167.733C148.746 166.784 185.79 143.057 237.558 154.445C289.326 165.834 299.298 173.906 326.37 165.834" stroke="#263238" stroke-miterlimit="10"/>
<path d="M251.639 135.035C252.933 138.155 254.168 141.143 255.411 144.123C256.413 146.534 257.319 148.988 258.452 151.333C259.622 153.751 257.487 156.608 255.404 157.126C253.993 157.484 252.984 156.703 252.918 155.22C252.83 153.123 254.468 151.333 257.173 150.676C255.974 147.776 254.782 144.905 253.525 141.873C249.796 144.262 246.185 146.548 242.632 148.908C242.39 149.069 242.376 149.872 242.537 150.267C243.692 153.196 244.927 156.096 246.112 159.011C247.084 161.392 246.024 163.935 243.604 164.76C242.946 164.987 241.857 164.994 241.425 164.599C240.928 164.146 240.643 163.08 240.775 162.379C241.184 160.253 242.617 158.982 244.905 158.529C242.829 153.547 240.767 148.623 238.684 143.612C242.99 140.763 247.252 137.95 251.646 135.043L251.639 135.035ZM241.36 147.396C245.19 144.861 248.912 142.399 252.699 139.893C252.457 139.346 252.253 138.878 252.011 138.315C248.137 140.799 244.386 143.203 240.577 145.65C240.855 146.263 241.082 146.789 241.36 147.396Z" fill="#263238"/>
<path d="M144.265 140.025C144.265 140.025 144.265 140.003 144.265 139.996C139.001 140.178 133.898 140.354 128.736 140.536C127.903 145.898 127.077 151.165 126.243 156.505C124.057 155.702 122.171 156.038 120.709 157.638C120.227 158.164 119.912 159.223 120.102 159.873C120.263 160.435 121.192 160.998 121.871 161.151C124.364 161.714 126.594 160.099 127.011 157.565C127.523 154.46 127.983 151.341 128.532 148.243C128.605 147.827 129.036 147.147 129.321 147.14C133.561 146.987 137.809 146.921 142.203 146.833C141.72 149.901 141.245 152.97 140.763 156.045C138.577 155.241 136.69 155.578 135.228 157.177C135.06 157.36 134.914 157.616 134.797 157.893C134.797 157.893 134.797 157.893 134.797 157.901C134.073 159.194 134.526 160.384 135.916 160.823C137.963 161.465 141.274 160.151 141.545 157.477C141.603 156.9 141.676 156.33 141.757 155.753C142.188 153.094 142.598 150.427 143.066 147.776C143.139 147.359 143.57 146.68 143.855 146.673C148.125 146.519 152.401 146.453 156.824 146.366C156.313 149.609 155.823 152.685 155.333 155.782C152.687 154.927 150.347 155.607 149.324 157.433C148.6 158.726 149.053 159.917 150.442 160.355C152.489 160.998 155.801 159.683 156.071 157.009C156.327 154.416 156.846 151.852 157.249 149.273C157.753 146.081 158.257 142.888 158.784 139.557C153.856 139.725 149.075 139.893 144.25 140.061L144.265 140.025ZM129.043 145.168C129.131 144.503 129.204 143.94 129.292 143.268C133.795 143.173 138.233 143.086 142.817 142.991C142.729 143.561 142.642 144.13 142.554 144.7C138.043 144.861 133.613 145.014 129.051 145.175L129.043 145.168ZM157.168 144.218C152.628 144.379 148.168 144.532 143.577 144.693C143.65 144.123 143.716 143.612 143.789 143.057C143.804 142.969 143.819 142.881 143.833 142.794C148.359 142.699 152.811 142.611 157.409 142.516C157.322 143.122 157.256 143.626 157.168 144.225V144.218Z" fill="#263238"/>
<path d="M297.2 146.789C297.331 147.242 297.646 147.732 297.551 148.134C297.156 149.879 297.806 151.311 298.698 152.721C299.488 153.97 300.314 155.212 300.906 156.556C302.054 159.142 301.506 161.517 299.539 163.708C302.244 159.164 300.087 156.133 296.454 153.496C296.359 153.759 296.22 154.036 296.154 154.328C295.131 158.989 294.122 163.657 293.098 168.325C292.47 171.189 289.611 172.869 286.789 172.036C284.691 171.415 284.164 169.45 285.787 167.96C287.63 166.265 289.786 166.017 292.243 166.981C293.712 160.275 295.167 153.612 296.622 146.957C296.819 146.899 297.017 146.848 297.214 146.789H297.2Z" fill="#263238"/>
<path d="M81.5742 134.451C81.7058 134.904 82.0201 135.393 81.9251 135.795C81.5303 137.541 82.181 138.973 83.0729 140.383C83.8625 141.632 84.6886 142.874 85.2808 144.218C86.4286 146.804 85.8803 149.178 83.9136 151.37C86.6186 146.826 84.4619 143.794 80.8285 141.157C80.7334 141.42 80.5945 141.698 80.5287 141.99C79.5052 146.651 78.4963 151.319 77.4728 155.987C76.8441 158.85 73.9855 160.53 71.1636 159.698C69.0654 159.077 68.539 157.112 70.162 155.621C72.0043 153.927 74.161 153.678 76.6174 154.642C78.0869 147.936 79.5418 141.274 80.9966 134.619C81.194 134.561 81.3914 134.509 81.5888 134.451H81.5742Z" fill="#263238"/>
<path d="M273.966 151.655L274.982 146.965C274.997 146.738 275.026 146.505 275.084 146.263C275.172 145.862 274.858 145.365 274.734 144.919C274.536 144.978 274.339 145.029 274.141 145.087C272.686 151.742 271.232 158.397 269.762 165.111C267.313 164.146 265.149 164.395 263.307 166.09C261.684 167.58 262.21 169.552 264.308 170.166C267.13 170.999 269.989 169.318 270.618 166.455C271.641 161.794 272.65 157.126 273.673 152.458C273.732 152.173 273.864 151.91 273.959 151.655H273.966Z" fill="#263238"/>
<path d="M111.176 152.137L112.192 147.447C112.207 147.22 112.236 146.987 112.294 146.746C112.382 146.344 112.068 145.847 111.943 145.401C111.746 145.46 111.549 145.511 111.351 145.569C109.896 152.224 108.441 158.879 106.972 165.593C104.523 164.629 102.359 164.877 100.517 166.572C98.8935 168.062 99.4199 170.034 101.518 170.648C104.34 171.481 107.199 169.801 107.827 166.937C108.851 162.276 109.86 157.608 110.883 152.94C110.942 152.655 111.073 152.392 111.168 152.137H111.176Z" fill="#263238"/>
<path d="M190.886 73.1683C190.886 73.1683 184.686 71.2251 177.858 74.4028C171.029 77.5805 168.485 83.1325 160.86 86.9384C153.235 90.7444 140.529 96.9392 134.176 94.397C127.822 91.8548 126.872 90.2696 127.508 92.4903C128.144 94.7111 129.891 97.7281 132.75 98.8385C135.608 99.9489 136.881 100.11 136.881 100.11C136.881 100.11 138.313 101.22 133.225 102.016C128.144 102.812 123.699 101.856 123.699 101.856C123.699 101.856 124.65 112.492 138.628 115.823C152.606 119.154 156.254 117.569 156.254 117.569C156.254 117.569 149.587 122.485 147.518 123.917C145.456 125.349 150.691 128.044 160.538 128.359C170.386 128.673 179.598 120.264 185 120.264C190.403 120.264 196.91 124.392 203.109 122.807C209.302 121.221 211.846 112.967 211.371 111.06C210.895 109.153 209.623 106.297 209.623 106.297C209.623 106.297 211.685 106.297 213.118 109.95C214.551 113.602 215.026 115.348 215.501 113.602C215.976 111.856 218.199 109.161 213.44 100.592C208.68 92.0228 208.519 92.6584 206.611 85.5139C204.703 78.3695 200.572 75.5132 196.603 75.5132L190.893 73.1683H190.886Z" fill="#263238" stroke="#263238" stroke-linecap="round" stroke-linejoin="round"/>
<path d="M179.953 102.975C182.713 102.281 184.285 99.0729 183.464 95.8097C182.642 92.5466 179.739 90.4638 176.978 91.1577C174.217 91.8516 172.646 95.0594 173.467 98.3225C174.289 101.586 177.192 103.668 179.953 102.975Z" fill="white" stroke="#263238" stroke-linecap="round" stroke-linejoin="round"/>
<path d="M167.411 156.907C167.411 156.907 161.562 165.22 158.645 184.769C155.721 204.317 160.443 226.335 162.695 232.398C164.947 238.462 174.166 267.675 176.184 274.41C178.201 281.146 178.655 292.388 178.655 292.388C178.655 292.388 174.158 301.6 172.806 304.069C171.453 306.538 169.436 308.116 171.234 308.562C173.033 309.007 180 306.991 181.806 304.968C183.604 302.944 183.604 300.921 185.176 299.123C186.748 297.326 190.125 295.756 190.125 294.178C190.125 292.6 188.1 290.584 187.201 289.912C186.302 289.24 185.403 288.115 185.403 288.115C185.403 288.115 188.553 265.87 186.755 258.682C184.957 251.494 180.906 243.407 180.906 241.829C180.906 240.251 180.453 226.101 180.453 220.484C180.453 214.866 181.579 206.779 181.579 206.779C181.579 206.779 185.629 194.645 190.345 189.254C195.067 183.863 202.715 181.839 203.161 176.675C203.614 171.51 203.161 164.541 203.161 164.541L167.411 156.9V156.907Z" fill="#92E3A9" stroke="#263238" stroke-linecap="round" stroke-linejoin="round"/>
<path d="M174.078 184.674C174.495 185.39 174.933 186.047 175.394 186.61" stroke="#263238" stroke-linecap="round" stroke-linejoin="round"/>
<path d="M170.064 174.198C170.064 174.198 171.285 179.078 173.267 183.147" stroke="#263238" stroke-linecap="round" stroke-linejoin="round"/>
<path d="M185.403 181.401C185.403 181.401 166.738 196.004 158.418 204.77C150.099 213.536 141.106 225.444 145.829 229.257C150.552 233.078 196.193 245.657 200.47 248.353C204.74 251.048 207.664 255.541 209.689 259.135C211.714 262.729 213.059 264.979 213.513 266.995C213.966 269.019 216.883 266.543 216.883 262.05C216.883 257.557 216.21 249.47 216.21 246.548C216.21 243.626 213.739 243.626 212.16 243.853C210.588 244.079 207.211 245.204 207.211 245.204C207.211 245.204 198.891 243.181 190.345 236.665C181.798 230.148 183.048 230.214 178.201 226.781C171.234 221.835 166.058 221.616 166.058 221.616C166.058 221.616 189.445 207.239 196.413 200.27C203.38 193.309 204.506 182.292 204.506 178.479C204.506 174.666 203.38 171.064 203.38 171.064" fill="#92E3A9"/>
<path d="M185.403 181.401C185.403 181.401 166.738 196.004 158.418 204.77C150.099 213.536 141.106 225.444 145.829 229.257C150.552 233.078 196.193 245.657 200.47 248.353C204.74 251.048 207.664 255.541 209.689 259.135C211.714 262.729 213.059 264.979 213.513 266.995C213.966 269.019 216.883 266.543 216.883 262.05C216.883 257.557 216.21 249.47 216.21 246.548C216.21 243.626 213.739 243.626 212.16 243.853C210.588 244.079 207.211 245.204 207.211 245.204C207.211 245.204 198.891 243.181 190.345 236.665C181.798 230.148 183.048 230.214 178.201 226.781C171.234 221.835 166.058 221.616 166.058 221.616C166.058 221.616 189.445 207.239 196.413 200.27C203.38 193.309 204.506 182.292 204.506 178.479C204.506 174.666 203.38 171.064 203.38 171.064" stroke="#263238" stroke-linecap="round" stroke-linejoin="round"/>
<path d="M157.431 221.799C156.839 221.937 156.254 222.105 155.699 222.317" stroke="#263238" stroke-linecap="round" stroke-linejoin="round"/>
<path d="M166.065 221.616C166.065 221.616 163.47 221.185 160.436 221.375" stroke="#263238" stroke-linecap="round" stroke-linejoin="round"/>
<path d="M212.16 243.86C210.588 244.087 207.211 245.212 207.211 245.212C207.211 245.212 198.891 243.188 190.345 236.672C189.08 235.708 188.034 234.889 187.142 234.181C186.748 236.197 185.578 239.009 182.442 242.107C191.383 244.927 198.854 247.345 200.463 248.36C204.732 251.056 207.657 255.548 209.682 259.142C211.707 262.737 213.052 264.987 213.505 267.003C213.959 269.026 216.876 266.55 216.876 262.057C216.876 257.565 216.203 249.478 216.203 246.556C216.203 243.634 213.732 243.634 212.153 243.86H212.16Z" fill="white" stroke="#263238" stroke-linecap="round" stroke-linejoin="round"/>
<path d="M212.16 243.86C211.597 243.94 210.815 244.13 210.033 244.35C210.947 246.329 212.672 250.544 212.833 254.642C212.979 258.288 211.612 260.034 210.632 260.815C212.124 263.46 213.132 265.315 213.505 267.003C213.959 269.026 216.876 266.55 216.876 262.057C216.876 257.565 216.203 249.478 216.203 246.556C216.203 243.634 213.732 243.634 212.153 243.86H212.16Z" fill="#263238" stroke="#263238" stroke-linecap="round" stroke-linejoin="round"/>
<path d="M187.201 289.919C186.302 289.247 185.403 288.122 185.403 288.122C185.403 288.122 187.252 275.046 187.303 265.71C183.048 268.814 178.443 270.02 174.97 270.451C175.489 272.116 175.906 273.482 176.184 274.417C178.209 281.16 178.655 292.395 178.655 292.395C178.655 292.395 174.158 301.607 172.806 304.076C171.453 306.545 169.436 308.123 171.234 308.569C173.033 309.022 180 306.998 181.806 304.975C183.611 302.951 183.604 300.928 185.176 299.131C186.748 297.334 190.125 295.763 190.125 294.185C190.125 292.607 188.1 290.591 187.201 289.919Z" fill="white" stroke="#263238" stroke-linecap="round" stroke-linejoin="round"/>
<path d="M187.201 289.919C187.15 289.882 187.106 289.839 187.055 289.802C186.835 290.189 186.587 290.606 186.302 291.044C183.831 294.865 181.579 299.81 178.881 301.826C176.52 303.594 174.158 302.783 173.61 302.557C173.288 303.178 173.018 303.704 172.813 304.076C171.461 306.545 169.443 308.123 171.241 308.569C173.04 309.022 180.007 306.998 181.813 304.975C183.619 302.951 183.611 300.928 185.183 299.131C186.755 297.334 190.133 295.763 190.133 294.185C190.133 292.607 188.108 290.591 187.208 289.919H187.201Z" fill="#263238" stroke="#263238" stroke-linecap="round" stroke-linejoin="round"/>
<path d="M180.555 104.551C180.555 104.551 170.393 100.424 169.911 100.11C169.436 99.7955 158.638 89.634 158.638 89.634L176.9 64.8769C176.9 64.8769 182.939 64.5628 185.161 63.7665C187.384 62.9703 189.453 62.6562 189.767 62.0206C190.081 61.3851 192.15 58.2146 193.101 56.9435C194.051 55.6724 192.15 54.8835 191.668 55.5117C191.193 56.1473 190.871 56.6221 190.871 56.6221C190.871 56.6221 187.852 52.9695 186.901 52.9695C185.951 52.9695 183.882 55.9866 183.882 55.9866C183.882 55.9866 176.732 57.2577 175.942 58.6822C175.145 60.114 147.35 88.3629 146.874 91.0585C146.399 93.7541 158.63 105.815 165.137 110.578C171.651 115.341 177.843 121.053 177.843 121.053C177.843 121.053 175.145 128.512 175.145 131.843C175.145 135.174 175.621 139.302 175.306 140.573C174.992 141.844 165.619 157.711 165.619 157.711C165.619 157.711 172.448 163.584 186.587 166.119C200.726 168.661 205.171 166.754 205.171 166.754C205.171 166.754 205.807 156.118 206.282 153.422C206.757 150.727 213.432 136.124 213.432 136.124L215.18 155.008C215.18 155.008 219.149 157.389 221.218 158.814C223.28 160.245 227.886 163.102 227.886 163.102C227.886 163.102 225.027 137.548 223.916 130.725C222.805 123.902 222.966 122.157 219.785 119.461C216.612 116.765 205.017 114.062 205.017 114.062L180.555 104.537V104.551Z" fill="white" stroke="#263238" stroke-linecap="round" stroke-linejoin="round"/>
<path d="M176.893 61.9548C176.893 61.9548 178.231 60.0628 180.46 59.7268C182.69 59.3907 188.824 60.1724 188.824 60.1724C188.824 60.1724 190.147 57.4184 190.878 56.6221" stroke="#263238" stroke-linecap="round" stroke-linejoin="round"/>
<path d="M187.596 53.4809C187.596 53.4809 185.366 55.709 185.256 56.8267" stroke="#263238" stroke-linecap="round" stroke-linejoin="round"/>
<path d="M188.934 54.5986C188.934 54.5986 187.369 55.9354 186.368 58.0539" stroke="#263238" stroke-linecap="round" stroke-linejoin="round"/>
<path d="M190.498 56.1619C190.498 56.1619 187.15 58.2804 187.267 59.2812L183.896 55.9866" stroke="#263238" stroke-linecap="round" stroke-linejoin="round"/>
<path d="M219.785 119.468C216.605 116.773 205.017 114.07 205.017 114.07L180.555 104.551C180.555 104.551 178.187 103.594 175.686 102.564L176.491 119.833C177.346 120.593 177.858 121.061 177.858 121.061C177.858 121.061 175.16 128.519 175.16 131.85C175.16 135.182 175.635 139.309 175.321 140.58C175.007 141.851 165.634 157.718 165.634 157.718C165.634 157.718 172.462 163.591 186.601 166.126C200.741 168.661 205.186 166.762 205.186 166.762C205.186 166.762 205.822 156.125 206.297 153.43C206.772 150.734 213.447 136.131 213.447 136.131L213.747 139.331L223.733 129.469C222.827 123.676 222.775 121.988 219.807 119.461L219.785 119.468Z" fill="white" stroke="#263238" stroke-linecap="round" stroke-linejoin="round"/>
<path d="M177.858 121.053L180.577 111.864" stroke="#263238" stroke-linecap="round" stroke-linejoin="round"/>
<path d="M178.384 119.585V111.221" stroke="#263238" stroke-linecap="round" stroke-linejoin="round"/>
<path d="M211.466 130.901L213.432 136.131L210.691 132.698" fill="white"/>
<path d="M211.466 130.901L213.432 136.131L210.691 132.698" stroke="#263238" stroke-linecap="round" stroke-linejoin="round"/>
<path d="M195.111 147.206L196.661 148.134" stroke="#263238" stroke-linecap="round" stroke-linejoin="round"/>
<path d="M181.345 139.002L194.037 146.57" stroke="#263238" stroke-linecap="round" stroke-linejoin="round"/>
<path d="M181.477 141.055L188.941 145.431" stroke="#263238" stroke-linecap="round" stroke-linejoin="round"/>
<path d="M187.238 80.1958C187.238 80.1958 183.706 80.8167 179.13 85.3897C174.553 89.9628 174.144 91.8329 174.97 92.8702C175.803 93.9075 176.842 99.9343 179.547 104.295C182.252 108.657 187.859 111.36 187.859 111.36C187.859 111.36 189.935 116.758 195.967 117.803C201.998 118.84 205.325 114.895 205.325 114.895C205.325 114.895 201.998 109.497 201.165 104.719C200.331 99.9416 199.915 91.4238 199.915 91.4238L198.876 85.8134C198.876 85.8134 190.564 86.018 187.238 80.2031V80.1958Z" fill="white" stroke="#263238" stroke-linecap="round" stroke-linejoin="round"/>
<path d="M190.652 115.209C194.475 111.177 197.209 102.002 197.209 102.002C193.627 109.416 187.859 111.36 187.859 111.36C187.859 111.36 188.649 113.398 190.652 115.209Z" fill="#263238" stroke="#263238" stroke-linecap="round" stroke-linejoin="round"/>
<path d="M181.623 90.7955L183.282 99.3133L185.571 98.6851" stroke="#263238" stroke-linecap="round" stroke-linejoin="round"/>
<path d="M184.949 102.842C184.949 102.842 190.981 102.805 190.981 97.1948" stroke="#263238" stroke-linecap="round" stroke-linejoin="round"/>
<path d="M190.03 96.9684H192.34" stroke="#263238" stroke-linecap="round" stroke-linejoin="round"/>
<path d="M186.558 92.5561C186.558 92.5561 188.554 93.082 190.659 91.5041" stroke="#263238" stroke-linecap="round" stroke-linejoin="round"/>
<path d="M177.938 95.9164C177.938 95.9164 179.517 96.4424 181.096 94.3385" stroke="#263238" stroke-linecap="round" stroke-linejoin="round"/>
<path d="M185.088 88.4579C185.088 88.4579 186.353 86.5659 189.402 87.8297" stroke="#263238" stroke-linecap="round" stroke-linejoin="round"/>
<path d="M180.358 90.4522C180.358 90.4522 178.362 90.1381 177.097 92.8702" stroke="#263238" stroke-linecap="round" stroke-linejoin="round"/>
<path d="M199.812 85.3824C199.812 85.3824 198.387 80.919 195.528 77.7997C192.669 74.6804 190.886 73.1609 190.886 73.1609C190.886 73.1609 195.353 74.5855 197.758 76.9961C200.17 79.4068 201.508 84.9368 201.508 84.9368L199.812 85.3824Z" fill="white" stroke="#263238" stroke-linecap="round" stroke-linejoin="round"/>
<path d="M199.615 95.3101C199.615 95.3101 200.616 104.595 197.604 113.376C194.592 122.156 187.311 129.681 186.309 131.186C185.307 132.691 171.241 162.043 181.038 162.298C190.834 162.554 199.118 149.003 199.118 149.003" stroke="#263238" stroke-linecap="round" stroke-linejoin="round"/>
<path d="M182.793 108.101C182.793 108.101 182.544 125.415 186.309 131.186" stroke="#263238" stroke-linecap="round" stroke-linejoin="round"/>
<path d="M202.033 96.0415C204.794 95.3476 206.366 92.1398 205.544 88.8767C204.723 85.6135 201.819 83.5308 199.058 84.2246C196.298 84.9185 194.726 88.1263 195.547 91.3894C196.369 94.6526 199.273 96.7353 202.033 96.0415Z" fill="white" stroke="#263238" stroke-linecap="round" stroke-linejoin="round"/>
<path d="M212.365 132.267L198.884 148.061L200.002 149.361L213.666 133.107L212.365 132.267Z" fill="#263238" stroke="#263238" stroke-linecap="round" stroke-linejoin="round"/>
<path d="M228.449 161.341C227.981 160.224 227.147 158.01 227.147 158.01C227.147 158.01 210.274 149.207 210.091 148.645C209.901 148.082 208.965 146.775 209.528 145.46C210.091 144.145 211.217 138.345 211.217 138.345C211.217 138.345 207.467 134.787 206.904 134.597C206.341 134.407 205.405 136.285 205.405 136.285C205.405 136.285 205.098 136.621 204.762 137.066C203.848 137.731 201.654 139.382 201.654 139.908C201.654 140.58 202.546 140.281 203.073 140.207C203.482 140.149 204.338 139.864 204.696 139.74C205.756 140.127 206.282 140.799 206.282 140.799L206.904 141.522C206.904 141.522 204.279 140.156 202.89 140.434C201.494 140.712 201.771 142.012 201.771 142.012L201.954 142.567C201.954 142.567 199.629 143.867 199.629 144.7C199.629 145.533 201.113 144.605 202.137 144.518C203.16 144.423 203.621 144.423 203.621 144.423C203.621 144.423 202.788 149.069 204.455 150.647C206.129 152.224 207.613 152.502 207.613 152.502C207.613 152.502 217.651 163.737 220.348 166.25C223.046 168.756 226.577 170.524 227.688 168.946C228.807 167.368 228.895 162.444 228.434 161.327L228.449 161.341Z" fill="white" stroke="#263238" stroke-linecap="round" stroke-linejoin="round"/>
<path d="M201.954 142.574C201.954 142.574 202.788 142.202 203.438 142.202C204.089 142.202 205.858 142.852 205.946 144.62" stroke="#263238" stroke-linecap="round" stroke-linejoin="round"/>
<path d="M205.229 136.927C205.229 136.927 208.739 138.118 209.104 139.229C209.477 140.346 209.382 141.829 209.382 141.829" stroke="#263238" stroke-linecap="round" stroke-linejoin="round"/>
<path d="M206.896 141.53C206.896 141.53 207.437 142.209 207.437 143.509" stroke="#263238" stroke-linecap="round" stroke-linejoin="round"/>
</g>
<defs>
<clipPath id="clip0_132_595">
<rect width="351" height="309" fill="white"/>
</clipPath>
</defs>
</svg>
