<svg width="323" height="318" viewBox="0 0 323 318" fill="none" xmlns="http://www.w3.org/2000/svg">
<path d="M252.255 69.4247C250.012 64.6303 247.664 59.9058 244.986 55.4124C214.131 3.48558 131.477 -24.784 90.521 28.8855C80.757 41.68 77.3575 57.1342 70.7897 71.8044C55.8458 105.169 27.9276 125.117 10.4252 156.011C-3.14486 179.963 -1.33645 210.654 6.23364 236.544C14.4626 264.68 28.9369 284.327 52.0888 299.263C78.0514 316.005 105.815 311.358 133.874 305.535C146.491 302.917 159.507 300.243 172.404 301.244C188.561 302.497 204.507 307.543 220.537 309.993C237.206 312.541 254.498 313.143 270.556 307.592C321.977 289.793 334.159 206.405 313.012 158.629C305.526 141.719 292.839 128.673 281.063 115.437C268.348 101.152 260.554 87.1676 252.255 69.4317V69.4247Z" fill="#92E3A9"/>
<path d="M252.255 69.4247C250.012 64.6303 247.664 59.9058 244.986 55.4124C214.131 3.48558 131.477 -24.784 90.521 28.8855C80.757 41.68 77.3575 57.1342 70.7897 71.8044C55.8458 105.169 27.9276 125.117 10.4252 156.011C-3.14486 179.963 -1.33645 210.654 6.23364 236.544C14.4626 264.68 28.9369 284.327 52.0888 299.263C78.0514 316.005 105.815 311.358 133.874 305.535C146.491 302.917 159.507 300.243 172.404 301.244C188.561 302.497 204.507 307.543 220.537 309.993C237.206 312.541 254.498 313.143 270.556 307.592C321.977 289.793 334.159 206.405 313.012 158.629C305.526 141.719 292.839 128.673 281.063 115.437C268.348 101.152 260.554 87.1676 252.255 69.4317V69.4247Z" fill="white"/>
<path d="M191.168 89.1483C198.339 83.822 203.519 85.2218 202.236 87.0976C200.946 88.9664 200.764 89.3093 193.159 92.179C187.425 94.3417 182.245 97.5193 180.051 98.9472C179.925 99.6751 179.855 100.424 179.869 101.187C179.911 103.56 180.528 105.862 181.502 108.067C182.939 105.855 185.435 103.413 185.435 103.413C185.435 103.413 195.878 99.2481 201.682 97.8833C207.486 96.5185 208.509 97.2534 206.119 100.655C203.729 104.057 200.371 105.33 194.175 107.906C189.374 109.901 185.82 112.246 184.467 113.197C185.974 115.339 187.699 117.341 189.388 119.161C189.85 117.943 190.853 116.368 193.054 115.01C197.336 112.372 207.542 109.943 209.512 108.445C211.481 106.947 213.563 112.421 203.119 116.585C197.035 119.014 194.154 121.254 192.815 122.702C195.128 124.998 197.407 127.049 199.607 128.883C200.673 128.106 202.159 127.07 204.199 125.677C214.923 118.384 215.68 121.722 210.984 126.265C207.78 129.359 204.647 130.835 203.498 131.976C205.614 133.572 207.626 134.972 209.512 136.19C210.255 135.126 211.706 133.747 215.792 133.229C223.327 132.27 221.35 133.95 216.689 137.443C215.645 138.226 214.944 138.786 214.516 139.22C217.117 140.697 219.29 141.775 220.874 142.573C221.813 143.049 222.577 143.434 223.215 143.749C223.46 143.308 223.53 142.44 224.575 141.544C226.916 139.535 228.1 144.239 226.166 145.24C226.166 145.24 228.409 144.344 231.22 142.783C230.631 141.747 229.467 141.509 230.4 139.661C231.514 137.45 233.589 137.513 235.404 140.137C236.981 138.989 238.495 137.688 239.68 136.253C237.963 134.447 235.474 132.494 236.28 131.325C237.114 130.114 240.037 131.234 242.393 132.144C243.521 130.24 244.664 128.162 245.75 125.964C243.794 125.691 241.271 125.068 240.22 123.626C238.39 121.121 238.804 119.224 240.549 119.28C241.881 119.329 245.196 120.764 247.692 121.785C248.54 119.826 249.325 117.803 250.026 115.745C247.285 115.213 243.598 114.709 242.364 112.372C240.402 108.641 242.848 108.557 250.047 112.295C250.369 112.463 250.671 112.61 250.965 112.75C251.701 110.195 252.269 107.612 252.612 105.064C249.1 103.378 243.29 102.496 238.769 100.403C232.243 97.3864 237.563 94.9577 239.47 95.3776C240.893 95.6856 248.596 99.8081 252.921 101.901C253.166 97.7083 252.71 93.6628 251.273 90.0372C247.481 89.1203 241.271 88.6864 237.64 87.8255C232.446 86.6007 230.631 83.745 236.007 84.6339C239.806 85.2568 246.36 86.8526 249.956 87.3006C248.421 84.6549 246.255 82.2962 243.297 80.3574C240.367 78.4396 236.645 76.6828 232.692 75.521C230.119 76.3819 227.967 77.8027 226.993 77.8657C225.241 77.9777 226.881 76.1159 227.28 74.7371C227.315 74.6111 227.364 74.4921 227.421 74.3871C220.418 73.4422 213.437 74.8561 209.371 80.9313C209.764 80.3434 204.703 78.2506 204.353 78.1667C200.568 77.2638 196.516 78.9576 193.131 80.5884C189.199 82.4851 186.374 85.9217 184.236 89.6383C183.36 91.1571 182.428 92.7039 181.65 94.2997C182.841 94.0688 185.841 93.1099 191.168 89.1553V89.1483Z" fill="#92E3A9"/>
<path d="M223.944 150.524C227.771 147.682 230.54 148.431 229.853 149.425C229.166 150.419 229.068 150.608 225.002 152.141C221.939 153.296 219.178 154.989 218.007 155.752C217.937 156.144 217.902 156.536 217.909 156.949C217.93 158.216 218.259 159.448 218.778 160.624C219.542 159.441 220.874 158.139 220.874 158.139C220.874 158.139 226.446 155.913 229.551 155.185C232.657 154.458 233.196 154.849 231.921 156.662C230.645 158.475 228.85 159.161 225.542 160.533C222.977 161.597 221.084 162.85 220.355 163.36C221.161 164.508 222.079 165.572 222.984 166.545C223.229 165.894 223.769 165.054 224.939 164.326C227.224 162.92 232.678 161.618 233.729 160.82C234.78 160.022 235.888 162.941 230.315 165.166C227.063 166.461 225.528 167.658 224.813 168.435C226.047 169.66 227.266 170.759 228.437 171.738C229.005 171.326 229.797 170.773 230.89 170.031C236.617 166.139 237.023 167.917 234.514 170.346C232.804 171.997 231.129 172.788 230.519 173.397C231.647 174.251 232.727 174.993 233.729 175.644C234.129 175.077 234.9 174.342 237.086 174.062C241.11 173.551 240.051 174.447 237.563 176.309C237.009 176.729 236.631 177.023 236.4 177.261C237.787 178.045 238.951 178.626 239.792 179.053C240.297 179.305 240.703 179.515 241.04 179.683C241.173 179.445 241.208 178.983 241.769 178.507C243.016 177.436 243.654 179.941 242.617 180.48C242.617 180.48 243.815 180.004 245.315 179.172C245 178.619 244.376 178.493 244.881 177.506C245.477 176.323 246.584 176.358 247.551 177.758C248.393 177.149 249.199 176.449 249.836 175.686C248.918 174.72 247.593 173.677 248.021 173.054C248.463 172.41 250.026 173.005 251.28 173.488C251.883 172.473 252.493 171.361 253.075 170.185C252.03 170.038 250.685 169.709 250.124 168.939C249.143 167.602 249.367 166.587 250.299 166.622C251.007 166.65 252.78 167.413 254.112 167.959C254.568 166.916 254.988 165.831 255.36 164.732C253.895 164.452 251.925 164.179 251.273 162.934C250.222 160.946 251.533 160.897 255.374 162.892C255.549 162.983 255.71 163.06 255.864 163.13C256.257 161.765 256.558 160.386 256.748 159.021C254.876 158.118 251.771 157.649 249.36 156.536C245.876 154.926 248.715 153.632 249.731 153.849C250.488 154.017 254.603 156.214 256.916 157.327C257.049 155.087 256.804 152.932 256.04 150.993C254.014 150.503 250.699 150.272 248.757 149.81C245.988 149.152 245.014 147.633 247.888 148.102C249.921 148.438 253.418 149.285 255.332 149.53C254.512 148.116 253.355 146.856 251.778 145.821C250.215 144.799 248.231 143.861 246.114 143.238C244.741 143.7 243.591 144.456 243.072 144.491C242.14 144.554 243.009 143.56 243.227 142.818C243.248 142.748 243.276 142.692 243.304 142.629C239.561 142.125 235.839 142.881 233.666 146.122C233.876 145.807 231.171 144.694 230.988 144.645C228.97 144.162 226.804 145.065 224.995 145.94C222.893 146.954 221.386 148.788 220.25 150.769C219.78 151.581 219.283 152.407 218.869 153.261C219.507 153.135 221.105 152.624 223.951 150.51L223.944 150.524Z" fill="#92E3A9"/>
<path d="M189.157 192.603C192.984 189.761 195.752 190.51 195.065 191.504C194.379 192.505 194.28 192.687 190.215 194.22C187.152 195.375 184.39 197.068 183.22 197.831C183.15 198.223 183.114 198.615 183.121 199.028C183.143 200.295 183.472 201.527 183.991 202.703C184.755 201.52 186.086 200.218 186.086 200.218C186.086 200.218 191.659 197.992 194.764 197.264C197.869 196.537 198.409 196.928 197.133 198.741C195.857 200.554 194.063 201.24 190.755 202.612C188.189 203.676 186.297 204.928 185.568 205.439C186.374 206.587 187.292 207.651 188.196 208.624C188.442 207.973 188.981 207.133 190.152 206.405C192.437 204.999 197.89 203.697 198.942 202.899C199.993 202.101 201.1 205.02 195.528 207.245C192.276 208.54 190.741 209.737 190.026 210.514C191.259 211.739 192.479 212.838 193.65 213.817C194.217 213.404 195.009 212.852 196.103 212.11C201.829 208.218 202.236 209.996 199.727 212.425C198.016 214.076 196.341 214.867 195.731 215.476C196.86 216.33 197.939 217.072 198.942 217.723C199.341 217.156 200.112 216.421 202.299 216.141C206.322 215.63 205.264 216.526 202.776 218.388C202.222 218.808 201.843 219.102 201.612 219.34C203 220.124 204.164 220.705 205.005 221.132C205.509 221.384 205.916 221.594 206.252 221.762C206.386 221.524 206.421 221.062 206.981 220.586C208.229 219.515 208.867 222.02 207.829 222.559C207.829 222.559 209.028 222.083 210.528 221.251C210.213 220.698 209.589 220.572 210.093 219.585C210.689 218.402 211.797 218.437 212.764 219.837C213.605 219.228 214.411 218.528 215.049 217.765C214.131 216.799 212.806 215.756 213.234 215.133C213.675 214.489 215.238 215.084 216.493 215.567C217.096 214.552 217.706 213.439 218.287 212.264C217.243 212.117 215.897 211.788 215.336 211.018C214.355 209.681 214.579 208.666 215.512 208.701C216.22 208.729 217.993 209.492 219.325 210.038C219.78 208.995 220.201 207.91 220.572 206.811C219.107 206.531 217.138 206.258 216.486 205.013C215.435 203.025 216.745 202.976 220.586 204.971C220.762 205.062 220.923 205.138 221.077 205.208C221.47 203.844 221.771 202.465 221.96 201.1C220.089 200.197 216.984 199.728 214.572 198.615C211.089 197.005 213.928 195.711 214.944 195.928C215.701 196.096 219.815 198.293 222.128 199.406C222.262 197.166 222.016 195.011 221.252 193.072C219.227 192.582 215.911 192.351 213.97 191.889C211.201 191.231 210.227 189.712 213.1 190.181C215.133 190.517 218.631 191.364 220.544 191.609C219.724 190.195 218.568 188.935 216.991 187.9C215.428 186.878 213.444 185.94 211.327 185.317C209.953 185.779 208.804 186.535 208.285 186.57C207.353 186.633 208.222 185.639 208.439 184.897C208.46 184.827 208.488 184.771 208.516 184.708C204.773 184.204 201.051 184.96 198.879 188.201C199.089 187.886 196.383 186.773 196.201 186.724C194.182 186.241 192.016 187.144 190.208 188.019C188.105 189.033 186.598 190.867 185.463 192.848C184.993 193.66 184.495 194.486 184.082 195.34C184.72 195.214 186.318 194.703 189.164 192.589L189.157 192.603Z" fill="#92E3A9"/>
<path d="M213.03 149.488C208.243 145.38 204.521 146.115 205.334 147.493C206.147 148.872 206.259 149.124 211.474 151.525C215.407 153.331 218.897 155.829 220.376 156.942C220.432 157.46 220.439 157.992 220.39 158.531C220.243 160.197 219.696 161.793 218.897 163.297C217.993 161.674 216.36 159.826 216.36 159.826C216.36 159.826 209.21 156.375 205.187 155.129C201.164 153.884 200.407 154.346 201.921 156.858C203.435 159.371 205.741 160.435 209.974 162.556C213.262 164.2 215.645 166.02 216.556 166.762C215.386 168.197 214.075 169.52 212.792 170.717C212.526 169.835 211.895 168.673 210.416 167.609C207.528 165.537 200.463 163.325 199.145 162.171C197.827 161.016 196.096 164.774 203.245 168.218C207.416 170.227 209.329 171.948 210.199 173.04C208.453 174.545 206.75 175.875 205.11 177.058C204.395 176.456 203.407 175.651 202.033 174.573C194.834 168.904 194.14 171.221 197.224 174.65C199.327 176.988 201.465 178.185 202.215 179.046C200.645 180.067 199.159 180.949 197.764 181.719C197.294 180.935 196.341 179.892 193.488 179.326C188.224 178.283 189.535 179.557 192.647 182.251C193.341 182.853 193.811 183.28 194.091 183.609C192.185 184.519 190.6 185.177 189.444 185.66C188.757 185.947 188.203 186.178 187.741 186.374C187.586 186.052 187.586 185.436 186.893 184.757C185.343 183.224 184.271 186.479 185.589 187.277C185.589 187.277 184.054 186.535 182.154 185.296C182.617 184.596 183.451 184.484 182.883 183.133C182.203 181.523 180.745 181.46 179.329 183.224C178.271 182.342 177.276 181.341 176.512 180.277C177.815 179.088 179.659 177.835 179.154 176.974C178.629 176.085 176.512 176.722 174.808 177.247C174.107 175.854 173.407 174.328 172.748 172.725C174.136 172.627 175.944 172.312 176.757 171.354C178.173 169.681 177.97 168.323 176.743 168.274C175.804 168.239 173.393 169.086 171.591 169.688C171.093 168.267 170.638 166.804 170.245 165.32C172.201 165.082 174.829 164.907 175.811 163.325C177.381 160.799 175.657 160.61 170.407 162.892C170.168 162.997 169.951 163.081 169.741 163.164C169.348 161.331 169.075 159.483 168.956 157.663C171.514 156.648 175.65 156.312 178.937 155.066C183.682 153.261 180.058 151.294 178.692 151.49C177.675 151.637 172.04 154.164 168.893 155.416C168.928 152.449 169.446 149.628 170.638 147.136C173.357 146.681 177.752 146.674 180.353 146.255C184.075 145.646 185.498 143.728 181.664 144.085C178.958 144.337 174.262 145.135 171.703 145.275C172.916 143.483 174.563 141.929 176.736 140.711C178.895 139.507 181.6 138.45 184.446 137.828C186.22 138.562 187.664 139.668 188.343 139.759C189.57 139.927 188.512 138.534 188.301 137.541C188.28 137.45 188.252 137.366 188.217 137.289C193.201 136.967 198.044 138.31 200.61 142.79C200.364 142.356 204.03 141.131 204.283 141.096C206.988 140.648 209.764 142.041 212.063 143.357C214.741 144.89 216.556 147.451 217.881 150.174C218.421 151.287 219.002 152.421 219.472 153.59C218.645 153.366 216.577 152.547 213.023 149.495L213.03 149.488Z" fill="#92E3A9"/>
<path d="M189.283 130.856C188.897 127.007 184.089 124.753 181.124 124.648C181.124 124.648 175.404 118.524 171.402 118.209C167.4 117.894 162.458 119.462 160.572 123.402C158.687 127.343 156.752 142.783 156.752 142.783C156.752 142.783 162.43 141.39 168.633 140.347L168.71 140.242C168.71 140.242 173.477 133.789 173.414 135.525C173.372 136.624 172.334 138.583 171.57 139.885C172.867 139.703 174.15 139.542 175.369 139.423C177.276 139.241 179.077 138.884 180.71 138.387C181.103 135.98 181.734 132.452 182.196 133.74C182.582 134.818 182.953 136.407 183.185 137.492C187.075 135.805 189.528 133.306 189.283 130.856Z" fill="#92E3A9"/>
<path d="M220.937 196.767C221.596 192.96 226.544 191.042 229.509 191.14C229.509 191.14 235.643 185.429 239.659 185.394C243.675 185.359 248.491 187.27 250.096 191.336C251.701 195.403 252.549 210.941 252.549 210.941C252.549 210.941 246.984 209.156 240.872 207.679L240.801 207.567C240.801 207.567 236.505 200.792 236.442 202.535C236.407 203.634 237.304 205.663 237.977 207.014C236.701 206.741 235.432 206.489 234.22 206.286C232.334 205.971 230.561 205.488 228.963 204.88C228.745 202.451 228.36 198.888 227.806 200.134C227.343 201.184 226.867 202.745 226.558 203.802C222.794 201.849 220.523 199.182 220.944 196.753L220.937 196.767Z" fill="#92E3A9"/>
<path d="M210.64 258.605C210.542 255.371 210.444 250.605 210.325 245.083C209.764 218.507 208.727 169.044 204.956 149.565C200.568 126.867 182.939 127.77 182.196 127.826L182.098 126.426C182.294 126.412 201.703 125.355 206.329 149.299C210.122 168.897 211.159 218.437 211.72 245.055C211.839 250.57 211.937 255.336 212.035 258.563L210.633 258.605H210.64Z" fill="#92E3A9"/>
<path d="M213.712 88.5968L212.31 88.6061L213.436 258.066L214.838 258.057L213.712 88.5968Z" fill="#92E3A9"/>
<path d="M216.801 258.213C216.661 254.77 213.346 173.705 217.229 156.795C218.477 151.371 220.895 147.836 224.421 146.283C230 143.833 236.21 147.283 236.47 147.43L235.776 148.648C235.72 148.613 229.909 145.394 224.974 147.563C221.876 148.928 219.731 152.141 218.589 157.103C214.748 173.831 218.161 257.31 218.196 258.15L216.794 258.206L216.801 258.213Z" fill="#92E3A9"/>
<path d="M219.577 258.031C219.03 251.641 214.376 195.473 220.117 191.049C222.626 189.117 225.85 188.942 229.453 190.538C232.089 191.707 233.981 193.394 234.058 193.464L233.119 194.507C233.049 194.444 226.04 188.256 220.972 192.162C220.005 192.904 217.881 197.733 219.009 226.381C219.633 242.234 220.958 257.758 220.972 257.912L219.577 258.031Z" fill="#92E3A9"/>
<path d="M208.685 257.891L207.283 257.814C211.909 176.512 210.57 143.924 208.643 142.482C203.715 139.801 195.542 146.751 195.458 146.821L194.54 145.765C194.904 145.45 203.533 138.115 209.322 141.257C210.451 141.873 213.093 143.308 211.222 200.995C210.304 229.3 208.699 257.611 208.685 257.898V257.891Z" fill="#92E3A9"/>
<path d="M237.093 246.14L240.339 175.231L306.886 173.607L303.234 251.606L287.407 252.124L237.093 246.14Z" fill="white"/>
<path d="M227.357 170.773L240.339 175.231L306.886 173.607L291.472 167.735L227.357 170.773Z" fill="white"/>
<path d="M287.407 252.124L291.472 167.735L306.886 173.607L303.234 251.606L287.407 252.124Z" fill="#263238"/>
<path d="M227.357 170.773L225.122 244.11L238.089 245.706L240.339 175.231L227.357 170.773Z" fill="#263238"/>
<path d="M157.075 249.576L221.498 263.798L222.346 288.429L158.561 269.104L157.075 249.576Z" fill="#92E3A9"/>
<path d="M221.498 263.798L287.407 252.124V272.925L222.346 288.429L221.498 263.798Z" fill="#263238"/>
<path d="M287.407 252.124L219.157 241.716L157.075 249.576L221.498 263.798L287.407 252.124Z" fill="white"/>
<path d="M174.367 262.567C174.367 262.567 173.014 264.757 173.357 267.788C173.694 270.819 177.107 276.117 184.993 279.071C191.89 281.653 199.033 279.085 201.016 276.712C203.547 273.681 203.715 269.468 203.042 268.628C202.369 267.788 202.201 267.62 201.521 268.796C200.848 269.972 200.343 271.323 197.301 272.162C194.266 273.002 187.516 272.834 182.792 271.155C178.068 269.468 177.395 268.124 176.89 265.597C176.386 263.071 175.881 260.712 174.36 262.567H174.367Z" fill="#263238"/>
<path d="M244.706 248.722C244.706 252.523 227.771 255.595 206.883 255.595C197.315 255.595 188.575 254.952 181.909 253.888C177.325 253.153 173.722 252.222 171.514 251.165C169.93 250.409 169.061 249.583 169.061 248.722C169.061 244.929 185.995 241.849 206.883 241.849C215.259 241.849 222.998 242.346 229.271 243.179C233.175 243.704 236.505 244.362 239.063 245.111C242.638 246.161 244.706 247.399 244.706 248.722Z" fill="#263238"/>
<path d="M196.755 248.974L171.514 251.165C173.722 252.222 177.325 253.153 181.909 253.888L198.815 249.191L196.755 248.974ZM229.271 243.179L216.682 245.839L216.472 246.7L239.063 245.111C236.505 244.362 233.175 243.704 229.271 243.179Z" fill="white"/>
<path d="M221.07 247.21C221.07 248.631 214.72 249.786 206.883 249.786C199.047 249.786 192.696 248.631 192.696 247.21C192.696 245.79 199.047 244.635 206.883 244.635C214.72 244.635 221.07 245.79 221.07 247.21Z" fill="white"/>
<path d="M208.054 247.21C208.054 247.329 207.528 247.42 206.883 247.42C206.238 247.42 205.713 247.322 205.713 247.21C205.713 247.098 206.238 247 206.883 247C207.528 247 208.054 247.098 208.054 247.21Z" fill="white"/>
<path d="M220.131 249.919C219.773 249.919 219.472 249.653 219.437 249.289C219.395 248.904 219.675 248.561 220.061 248.519L258.121 244.621C258.514 244.586 258.85 244.859 258.893 245.244C258.935 245.629 258.654 245.972 258.269 246.014L220.208 249.912C220.208 249.912 220.159 249.912 220.138 249.912L220.131 249.919Z" fill="white"/>
<path d="M220.131 249.919L220.32 252.18C220.362 252.712 220.839 253.104 221.371 253.048L230.561 252.019C231.044 251.963 231.409 251.557 231.409 251.074V249.009L220.131 249.926L220.131 249.919Z" fill="white"/>
<path d="M259.832 249.821V251.592C259.832 252.271 261.318 252.824 263.147 252.824C264.977 252.824 266.463 252.271 266.463 251.592V249.821H259.832Z" fill="#263238"/>
<path d="M266.463 249.821C266.463 250.43 264.977 250.92 263.147 250.92C261.318 250.92 259.832 250.43 259.832 249.821C259.832 249.212 261.318 248.722 263.147 248.722C264.977 248.722 266.463 249.212 266.463 249.821Z" fill="#263238"/>
<path d="M267.9 241.772C266.701 241.555 265.348 241.646 264.409 241.737C263.834 241.793 256.243 242.808 256.243 243.102V250.283L259.39 250.752L268.467 249.555C269.638 249.401 270.514 248.407 270.514 247.224V244.334C270.514 242.703 269.322 242.024 267.907 241.772H267.9Z" fill="#263238"/>
<path d="M246.801 253.223V254.994C246.801 255.672 248.287 256.225 250.117 256.225C251.946 256.225 253.432 255.672 253.432 254.994V253.223H246.801Z" fill="#263238"/>
<path d="M253.432 253.223C253.432 253.832 251.946 254.322 250.117 254.322C248.287 254.322 246.801 253.832 246.801 253.223C246.801 252.614 248.287 252.124 250.117 252.124C251.946 252.124 253.432 252.614 253.432 253.223Z" fill="white"/>
<path d="M235.629 255.05V256.82C235.629 257.499 237.115 258.052 238.944 258.052C240.773 258.052 242.259 257.499 242.259 256.82V255.05H235.629Z" fill="#263238"/>
<path d="M238.937 256.148C240.768 256.148 242.252 255.656 242.252 255.05C242.252 254.443 240.768 253.951 238.937 253.951C237.106 253.951 235.621 254.443 235.621 255.05C235.621 255.656 237.106 256.148 238.937 256.148Z" fill="white"/>
<path d="M222.829 258.255V259.305C222.829 259.711 223.713 260.04 224.792 260.04C225.871 260.04 226.755 259.711 226.755 259.305V258.255H222.822H222.829Z" fill="#263238"/>
<path d="M226.762 258.255C226.762 258.612 225.879 258.906 224.799 258.906C223.72 258.906 222.837 258.612 222.837 258.255C222.837 257.898 223.72 257.604 224.799 257.604C225.879 257.604 226.762 257.898 226.762 258.255Z" fill="white"/>
<path d="M107.463 172.137C107.463 172.137 129.044 174.993 132.696 179.424C136.348 183.861 136.825 187.984 137.456 191.308C138.086 194.633 143.806 232.981 144.598 240.904C145.39 248.827 146.343 251.998 144.914 255.169C143.484 258.339 135.71 263.568 131.743 264.043C127.776 264.519 123.97 264.204 121.271 263.092C118.572 261.986 109.846 256.435 109.846 256.435L16.8528 263.568C16.8528 263.568 38.1192 187.032 42.0864 181.012C46.0537 174.993 62.3995 170.241 72.2407 168.652C82.0818 167.07 107.47 172.137 107.47 172.137H107.463Z" fill="#92E3A9"/>
<path d="M58.9369 101.705C58.9369 101.705 46.6425 100.83 40.1449 106.086C33.6472 111.35 38.9182 113.274 38.9182 113.274C38.9182 113.274 28.0327 116.956 28.0327 123.094C28.0327 129.233 32.0701 126.776 32.0701 126.776C32.0701 126.776 21.535 139.402 21.8855 145.184C22.236 150.972 27.507 147.64 27.507 147.64C27.507 147.64 26.2804 160.092 29.0841 163.948C31.8949 167.805 37.8668 166.405 37.8668 166.405C37.8668 166.405 37.3411 172.718 40.5023 172.543C43.6636 172.368 48.2266 169.387 48.2266 169.387C48.2266 169.387 49.1028 179.906 53.6729 181.663C58.236 183.42 63.507 182.888 64.9089 181.313C66.3107 179.739 67.5444 177.107 67.5444 177.107C67.5444 177.107 69.1215 182.188 71.0561 178.507C72.9907 174.825 72.4579 168.687 71.4065 167.112C70.3551 165.537 63.6822 151.154 63.6822 148.704C63.6822 146.255 73.6916 123.283 74.0421 122.576C74.3925 121.876 94.7617 126.783 95.4626 127.308C96.1636 127.833 107.049 157.292 107.049 157.292C107.049 157.292 103.888 162.556 104.414 167.287C104.939 172.018 106.874 174.65 112.839 168.687C118.811 162.724 124.6 152.554 124.6 152.554C124.6 152.554 126.002 161.674 130.047 152.729C134.084 143.784 129.521 134.321 127.937 129.932C126.36 125.551 122.666 120.813 122.666 120.813C122.666 120.813 127.755 124.494 127.404 118.181C127.054 111.868 108.97 95.0346 101.589 92.053C94.215 89.0714 83.3294 89.7713 83.3294 89.7713C83.3294 89.7713 87.1916 86.6146 82.979 86.4397C78.7664 86.2647 54.1846 87.1396 58.9229 101.698L58.9369 101.705Z" fill="#263238"/>
<path d="M106.5 155.016C111.262 154.078 114.127 148.273 112.897 142.049C111.668 135.826 106.81 131.541 102.047 132.48C97.2846 133.418 94.4205 139.223 95.65 145.447C96.8796 151.67 101.737 155.955 106.5 155.016Z" fill="white"/>
<path d="M64.9369 174.986C64.9369 174.986 64.1449 188.138 64.9369 200.659C65.729 213.181 64.1449 217.611 65.5748 217.772C67.0047 217.933 66.8435 218.248 68.5888 215.868C70.3341 213.488 76.6846 203.193 77.4766 203.669C78.2687 204.145 78.7453 206.678 79.0607 208.897C79.3762 211.116 85.8879 222.524 85.8879 222.524C85.8879 222.524 90.6472 213.335 91.7617 211.277C92.8692 209.219 92.8692 208.897 93.9836 206.048C95.0911 203.193 95.8902 206.685 98.9042 210.647C101.918 214.608 106.523 220.789 107 218.57C107.477 216.351 103.825 207.476 103.348 198.447C102.871 189.418 103.986 177.373 103.033 174.041C102.079 170.717 92.2453 165.481 77.3224 165.481C62.3995 165.481 64.9439 174.986 64.9439 174.986H64.9369Z" fill="white"/>
<path d="M71.4065 167.105C71.4065 167.105 77 185.919 79.8528 200.498C82.7126 215.077 85.8808 222.524 85.8808 222.524C85.8808 222.524 91.9089 207.791 95.2453 195.585C98.5748 183.385 99.6892 172.928 99.6892 172.928L71.4065 167.105Z" fill="#ADADAD"/>
<path d="M79.5234 198.86C79.6355 199.413 79.7477 199.959 79.8528 200.505C82.7126 215.084 85.8808 222.531 85.8808 222.531C85.8808 222.531 90.6963 210.759 94.1028 199.546C89.4346 200.946 83.4136 199.875 79.5234 198.86Z" fill="#263238"/>
<path d="M69.9977 115.031L58.5864 146.066C58.5864 146.066 63.3248 160.092 65.4346 163.773C67.5444 167.455 71.5818 169.912 76.1449 172.011C80.7079 174.118 95.8131 177.8 98.9743 176.568C102.136 175.336 109.685 163.067 110.386 160.26C111.086 157.453 103.012 127.819 102.311 126.419C101.61 125.019 69.9977 115.024 69.9977 115.024V115.031Z" fill="#ADADAD"/>
<path d="M70.6986 140.452C70.6986 140.452 72.1005 136.421 75.4369 135.014C78.7734 133.614 83.5117 134.664 83.3364 135.889C83.1612 137.114 79.8248 136.064 77.8902 136.239C75.9556 136.414 70.6916 140.445 70.6916 140.445L70.6986 140.452Z" fill="#263238"/>
<path d="M93.1776 135.896C93.1776 135.896 94.229 132.564 96.1635 132.389C98.0981 132.214 104.54 134.181 102.661 133.964C101.105 133.782 95.2313 133.558 93.1776 135.896Z" fill="#263238"/>
<path d="M52.4953 145.359C52.4953 145.359 45.0794 132.34 49.8668 119.483C54.3528 107.458 60.6402 105.225 60.7103 105.12C60.7103 105.12 52.3762 105.008 47.1262 117.201C41.8762 129.401 48.3808 147.752 48.3808 147.752L52.4883 145.359H52.4953Z" fill="white"/>
<path d="M134.28 251.998C131.743 249.779 130.951 247.721 129.836 247.56C128.722 247.399 128.091 246.455 124.439 247.399C121.706 248.113 115.054 248.736 111.886 249.002L111.9 248.827H90.0023C75.2477 248.827 57.3107 247.245 57.3107 247.245L53.5047 268.32C53.5047 268.32 60.8014 267.214 73.8178 265.94C81.8575 265.156 94.1378 262.497 102.353 260.579L110.638 259.438C110.638 259.438 117.465 261.02 121.902 260.39C126.346 259.753 128.883 257.219 128.883 257.219C128.883 257.219 128.883 258.962 129.675 259.438C130.467 259.914 136.818 258.486 137.925 258.171C139.033 257.856 139.033 257.695 139.194 255.952C139.355 254.21 136.811 254.21 134.273 251.991L134.28 251.998Z" fill="#ADADAD"/>
<path d="M106.033 234.248C106.033 234.248 99.0514 239.791 99.6822 241.219C100.32 242.647 103.334 246.287 103.334 247.084C103.334 247.882 99.3668 258.017 102.065 259.921C104.764 261.825 113.806 265.94 123.963 265.786C134.119 265.632 139.04 257.702 140.308 255.644C141.577 253.587 139.355 242.178 137.449 236.789C135.542 231.399 127.607 229.342 120.626 230.293C113.645 231.245 106.026 234.255 106.026 234.255L106.033 234.248Z" fill="white"/>
<path d="M105.717 157.558C105.717 157.558 100.32 163.899 101.273 164.69C102.227 165.481 103.019 166.118 103.811 165.642C104.603 165.166 105.871 164.375 105.871 164.375C105.871 164.375 100.635 170.717 98.729 175.945C96.8224 181.173 98.8902 180.697 99.3668 184.344C99.8435 187.991 104.442 232.197 104.918 238.224C105.395 244.25 106.825 248.204 113.645 249.156C120.472 250.108 128.876 244.243 129.675 242.5C130.467 240.757 131.105 238.539 129.836 234.738C128.568 230.937 107.371 188.11 108.893 184.981C111.43 179.753 120.633 163.116 121.11 161.527C121.586 159.938 113.491 155.983 112.068 154.87C110.638 153.765 106.355 155.976 105.717 157.565V157.558Z" fill="#ADADAD"/>
<path d="M49.6986 175.623C49.6986 175.623 41.764 175.308 33.9907 183.546C26.2173 191.784 24.472 203.83 24.472 203.83C24.472 203.83 16.222 237.265 13.2079 250.731C10.1939 264.197 10.5093 267.214 16.8598 269.748C23.2103 272.281 29.5537 271.33 34.4743 271.33C39.3949 271.33 43.5164 270.224 43.5164 270.224L52.8808 245.664L54.9416 236.474C54.9416 236.474 62.3995 227.914 62.5607 214.132" fill="#92E3A9"/>
<path d="M58.7477 246.77C58.7477 246.77 58.271 265.31 57.7944 267.214C57.3178 269.118 57.0023 269.272 55.0958 270.224C53.1892 271.176 37.3201 272.442 34.3061 272.442C31.2921 272.442 27.9556 267.053 30.3388 256.596C32.722 246.14 37.7967 240.113 41.6028 240.113C45.4089 240.113 58.1098 245.342 58.1098 245.342L58.7477 246.77Z" fill="white"/>
<path d="M62.2313 151.224C64.7407 157.047 63.1636 163.325 58.7056 165.243C54.2477 167.161 48.5981 163.99 46.0818 158.167C43.5724 152.344 45.1495 146.066 49.6075 144.148C54.0654 142.23 59.715 145.401 62.2313 151.224Z" fill="white"/>
<path d="M57.5911 154.164C59.2523 158.02 58.2079 162.178 55.257 163.451C52.3061 164.718 48.5631 162.626 46.8949 158.762C45.2336 154.905 46.278 150.748 49.229 149.474C52.1799 148.207 55.9229 150.3 57.5911 154.164Z" fill="white"/>
<path d="M70.4252 270.644L19.4463 299.088L109.404 317.65L153.185 282.92L70.4252 270.644Z" fill="#92E3A9"/>
<path d="M45.2196 284.698C45.2196 284.698 51.0584 285.839 54.542 282.969C56.4836 281.366 55.5864 278.833 55.5864 278.833L45.2196 284.698Z" fill="#92E3A9"/>
<path d="M149.652 291.172C149.652 298.479 128.862 304.387 103.222 304.387C91.4743 304.387 80.75 303.148 72.5631 301.104C66.9346 299.69 62.5117 297.898 59.8061 295.869C57.8645 294.413 56.7921 292.831 56.7921 291.172C56.7921 283.879 77.5818 277.958 103.222 277.958C113.505 277.958 123.002 278.91 130.706 280.512C135.5 281.52 139.586 282.787 142.727 284.229C147.115 286.245 149.652 288.632 149.652 291.172Z" fill="#263238"/>
<path d="M90.7874 291.655L59.8061 295.869C62.5187 297.898 66.9416 299.69 72.5631 301.104L93.3177 292.075L90.7874 291.655ZM130.706 280.512L115.25 285.622L114.991 287.274L142.72 284.222C139.579 282.78 135.493 281.52 130.699 280.505L130.706 280.512Z" fill="white"/>
<path d="M120.633 288.261C120.633 290.997 112.839 293.216 103.222 293.216C93.6051 293.216 85.8037 290.997 85.8037 288.261C85.8037 285.524 93.5981 283.305 103.222 283.305C112.846 283.305 120.633 285.524 120.633 288.261Z" fill="white"/>
<path d="M162.879 93.5718C162.879 93.1239 162.668 92.7039 162.311 92.438C161.953 92.172 161.491 92.088 161.056 92.214L146.154 96.6235C145.551 96.7984 145.138 97.3514 145.138 97.9813V115.017C144.647 114.828 144.121 114.716 143.561 114.716C141.136 114.716 139.173 116.676 139.173 119.098C139.173 121.519 141.136 123.479 143.561 123.479C145.853 123.479 147.71 121.715 147.907 119.483H147.97V106.485L160.04 102.916V110.44C159.556 110.258 159.044 110.146 158.498 110.146C156.072 110.146 154.11 112.106 154.11 114.527C154.11 116.949 156.072 118.909 158.498 118.909C160.923 118.909 162.886 116.949 162.886 114.527C162.886 114.506 162.886 114.485 162.886 114.464V93.5858L162.879 93.5718ZM160.047 99.9551L147.977 103.525V99.0382L160.047 95.4686V99.9551Z" fill="#263238"/>
</svg>
